<?xml version="1.0" standalone="no"?>
<!DOCTYPE svg PUBLIC "-//W3C//DTD SVG 20010904//EN"
 "http://www.w3.org/TR/2001/REC-SVG-20010904/DTD/svg10.dtd">
<svg version="1.0" xmlns="http://www.w3.org/2000/svg"
 width="222.000000pt" height="55.000000pt" viewBox="0 0 222.000000 55.000000"
 preserveAspectRatio="xMidYMid meet">

<g transform="translate(0.000000,55.000000) scale(0.100000,-0.100000)"
fill="#000000" stroke="none">
<path d="M1885 521 c-75 -19 -135 -69 -169 -141 -12 -25 -31 -55 -43 -68 -27
-26 -29 -42 -8 -42 8 0 15 -9 15 -20 0 -25 17 -26 23 -2 4 14 5 15 6 1 1 -21
29 -29 60 -17 24 8 25 17 5 85 -9 34 76 115 140 133 137 38 250 -76 214 -218
-16 -65 -78 -125 -146 -142 -33 -7 -52 -17 -52 -26 0 -22 23 -27 67 -15 54 15
101 48 140 99 35 46 42 48 19 4 -21 -40 -76 -89 -120 -107 -48 -20 -40 -31 10
-15 48 16 118 86 134 135 28 84 0 206 -64 283 -47 55 -160 91 -231 73z m65
-48 c-85 -14 -139 -47 -177 -108 -23 -38 -24 -38 -18 -10 8 36 59 92 100 111
17 7 50 13 75 12 25 0 34 -3 20 -5z"/>
<path d="M276 447 c-9 -22 -21 -85 -26 -144 -13 -148 0 -263 30 -263 16 0 12
46 -5 60 -12 10 -15 38 -15 136 0 117 9 171 31 185 6 3 9 19 7 35 l-4 29 -18
-38z"/>
<path d="M403 468 c-6 -8 -13 -102 -15 -223 -6 -219 -4 -243 7 -112 4 43 9 76
12 73 3 -3 9 -43 13 -88 6 -74 7 -69 6 52 0 74 -2 123 -4 108 -2 -16 -8 -28
-13 -28 -5 0 -9 41 -9 90 0 120 22 123 34 5 2 -22 3 -5 2 37 -1 79 -14 110
-33 86z"/>
<path d="M556 447 c-9 -22 -21 -85 -26 -144 -13 -148 0 -263 30 -263 16 0 12
46 -5 60 -12 10 -15 38 -15 136 0 117 9 171 31 185 6 3 9 19 7 35 l-4 29 -18
-38z"/>
<path d="M1113 468 c-22 -26 -36 -121 -37 -248 -1 -132 7 -184 27 -177 8 2 12
34 13 98 l1 94 -6 -75 c-3 -42 -9 -70 -14 -63 -27 42 -13 297 18 319 10 8 15
23 13 40 -2 23 -5 25 -15 12z"/>
<path d="M1239 459 c-20 -38 -22 -130 -5 -195 23 -88 21 -151 -4 -166 -20 -13
-28 -58 -11 -58 37 0 53 145 27 246 -21 81 -20 110 4 134 21 21 27 60 10 60
-5 0 -14 -10 -21 -21z"/>
<path d="M1379 459 c-20 -38 -22 -130 -5 -195 23 -88 21 -151 -4 -166 -20 -13
-28 -58 -11 -58 37 0 53 145 27 246 -21 81 -20 110 4 134 21 21 27 60 10 60
-5 0 -14 -10 -21 -21z"/>
<path d="M56 408 c-3 -35 -7 -132 -9 -215 l-3 -153 23 0 c18 0 23 6 23 25 0
16 -6 25 -15 25 -12 0 -15 16 -15 80 0 64 3 80 15 80 8 0 15 9 15 20 0 11 -7
20 -15 20 -11 0 -15 12 -15 49 0 59 7 81 26 81 8 0 14 10 14 25 0 18 -5 25
-19 25 -16 0 -20 -9 -25 -62z"/>
<path d="M126 378 c-3 -51 -7 -148 -9 -216 -2 -121 -2 -122 21 -122 17 0 22 6
22 25 0 17 -6 25 -17 25 -15 0 -16 18 -10 190 3 105 4 190 2 190 -2 0 -6 -42
-9 -92z"/>
<path d="M186 408 c-3 -35 -7 -132 -9 -215 l-3 -153 23 0 c18 0 23 6 23 25 0
16 -6 25 -15 25 -12 0 -15 16 -15 80 0 64 3 80 15 80 8 0 15 9 15 20 0 11 -7
20 -15 20 -11 0 -15 12 -15 49 0 59 7 81 26 81 8 0 14 10 14 25 0 18 -5 25
-19 25 -16 0 -20 -9 -25 -62z"/>
<path d="M320 445 c0 -14 5 -25 11 -25 8 0 10 -54 6 -192 -3 -136 -3 -162 3
-88 4 58 8 144 9 191 1 67 4 88 16 93 8 3 15 15 15 26 0 16 -7 20 -30 20 -25
0 -30 -4 -30 -25z"/>
<path d="M460 445 c0 -14 5 -25 11 -25 15 0 3 -323 -12 -328 -5 -2 -9 -15 -9
-28 0 -19 5 -24 25 -24 20 0 25 5 25 25 0 14 -5 25 -11 25 -12 0 -1 323 12
328 5 2 9 15 9 28 0 19 -5 24 -25 24 -20 0 -25 -5 -25 -25z"/>
<path d="M676 448 c-3 -13 -7 -110 -9 -215 -4 -162 -3 -193 9 -193 29 0 40 79
33 230 0 8 3 40 7 72 8 69 -2 128 -21 128 -8 0 -17 -10 -19 -22z m32 -89 c-7
-91 -28 -100 -28 -13 0 39 3 74 6 77 17 16 26 -11 22 -64z m-5 -146 c7 -42 -6
-116 -22 -121 -11 -4 -13 3 -8 28 4 18 7 52 7 76 0 49 15 59 23 17z"/>
<path d="M740 445 c0 -14 5 -25 11 -25 15 0 3 -323 -12 -328 -5 -2 -9 -15 -9
-28 0 -19 5 -24 25 -24 20 0 25 5 25 25 0 14 -5 25 -11 25 -12 0 -1 323 12
328 5 2 9 15 9 28 0 19 -5 24 -25 24 -20 0 -25 -5 -25 -25z"/>
<path d="M806 378 c-3 -51 -7 -148 -9 -216 -2 -121 -2 -122 21 -122 17 0 22 6
22 25 0 17 -6 25 -17 25 -15 0 -16 18 -10 190 3 105 4 190 2 190 -2 0 -6 -42
-9 -92z"/>
<path d="M876 378 c-3 -51 -7 -148 -9 -216 -2 -121 -2 -122 21 -122 17 0 22 6
22 25 0 17 -6 25 -17 25 -15 0 -16 18 -10 190 3 105 4 190 2 190 -2 0 -6 -42
-9 -92z"/>
<path d="M940 445 c0 -14 5 -25 11 -25 15 0 3 -323 -12 -328 -5 -2 -9 -15 -9
-28 0 -19 5 -24 25 -24 20 0 25 5 25 25 0 14 -5 25 -11 25 -12 0 -1 323 12
328 5 2 9 15 9 28 0 19 -5 24 -25 24 -20 0 -25 -5 -25 -25z"/>
<path d="M1011 338 c1 -103 3 -122 9 -83 12 73 12 203 0 210 -6 4 -10 -40 -9
-127z"/>
<path d="M1054 365 c0 -60 1 -84 3 -52 2 32 2 81 0 110 -2 29 -3 3 -3 -58z"/>
<path d="M1295 375 c3 -55 6 -154 7 -220 1 -66 3 -97 5 -70 4 64 32 332 39
365 3 18 2 21 -5 11 -5 -7 -12 -52 -16 -100 -9 -100 -12 -97 -24 24 l-10 90 4
-100z"/>
<path d="M1430 445 c0 -14 5 -25 11 -25 8 0 10 -54 6 -192 -3 -136 -3 -162 3
-88 4 58 8 144 9 191 1 67 4 88 16 93 8 3 15 15 15 26 0 16 -7 20 -30 20 -25
0 -30 -4 -30 -25z"/>
<path d="M1496 408 c-3 -35 -7 -132 -9 -215 l-3 -153 23 0 c18 0 23 6 23 25 0
16 -6 25 -15 25 -12 0 -15 16 -15 80 0 64 3 80 15 80 8 0 15 9 15 20 0 11 -7
20 -15 20 -11 0 -15 12 -15 49 0 59 7 81 26 81 8 0 14 10 14 25 0 18 -5 25
-19 25 -16 0 -20 -9 -25 -62z"/>
<path d="M1556 262 c-4 -117 -5 -216 -2 -219 3 -4 7 38 8 93 1 91 2 94 8 39 5
-48 7 -53 10 -25 3 25 6 15 10 -35 7 -69 7 -68 6 22 -1 51 2 87 6 80 4 -6 7
49 6 123 -1 145 -4 146 -17 5 -8 -86 -8 -87 -11 -30 -6 174 -16 151 -24 -53z"/>
<path d="M1891 363 c-28 -106 -30 -123 -12 -123 29 0 31 -10 11 -64 l-19 -51
27 32 c20 23 34 31 48 27 35 -9 67 38 71 103 2 35 -1 59 -8 64 -8 5 -8 12 0
28 11 20 10 21 -48 21 l-60 0 -10 -37z"/>
<path d="M1031 200 c0 -41 4 -95 8 -120 7 -37 9 -27 9 55 0 55 -3 109 -8 120
-6 14 -9 -4 -9 -55z"/>
<path d="M1003 115 c0 -44 2 -61 4 -37 2 23 2 59 0 80 -2 20 -4 1 -4 -43z"/>
</g>
</svg>
